<svg width="29" height="31" viewBox="0 0 29 31" fill="none" xmlns="http://www.w3.org/2000/svg">
<g filter="url(#filter0_d_33_688)">
<circle cx="14.7672" cy="12.8353" r="9.94783" fill="url(#paint0_linear_33_688)"/>
</g>
<path d="M11.0465 17.7497C10.2874 18.0988 9.50374 17.3151 9.85278 16.556L11.3523 13.295C11.4864 13.0033 11.4864 12.6675 11.3523 12.3759L9.85278 9.11479C9.50374 8.35571 10.2874 7.57206 11.0465 7.9211L14.3075 9.4206C14.5992 9.55472 14.935 9.55472 15.2266 9.4206L18.4877 7.9211C19.2468 7.57206 20.0304 8.35571 19.6814 9.11479L18.1819 12.3759C18.0478 12.6675 18.0478 13.0033 18.1819 13.295L19.6814 16.556C20.0304 17.3151 19.2468 18.0988 18.4877 17.7497L15.2266 16.2502C14.935 16.1161 14.5992 16.1161 14.3075 16.2502L11.0465 17.7497Z" fill="url(#paint1_linear_33_688)" stroke="#C2C2C2" stroke-width="0.2"/>
<defs>
<filter id="filter0_d_33_688" x="0.819336" y="2.88745" width="27.8958" height="27.8956" filterUnits="userSpaceOnUse" color-interpolation-filters="sRGB">
<feFlood flood-opacity="0" result="BackgroundImageFix"/>
<feColorMatrix in="SourceAlpha" type="matrix" values="0 0 0 0 0 0 0 0 0 0 0 0 0 0 0 0 0 0 127 0" result="hardAlpha"/>
<feOffset dy="4"/>
<feGaussianBlur stdDeviation="2"/>
<feComposite in2="hardAlpha" operator="out"/>
<feColorMatrix type="matrix" values="0 0 0 0 0 0 0 0 0 0 0 0 0 0 0 0 0 0 0.25 0"/>
<feBlend mode="normal" in2="BackgroundImageFix" result="effect1_dropShadow_33_688"/>
<feBlend mode="normal" in="SourceGraphic" in2="effect1_dropShadow_33_688" result="shape"/>
</filter>
<linearGradient id="paint0_linear_33_688" x1="14.7672" y1="2.88745" x2="14.7672" y2="22.7831" gradientUnits="userSpaceOnUse">
<stop stop-color="#EEEEEE"/>
<stop offset="1" stop-color="#B0B0B0"/>
</linearGradient>
<linearGradient id="paint1_linear_33_688" x1="8.63292" y1="18.9696" x2="20.9013" y2="6.70124" gradientUnits="userSpaceOnUse">
<stop stop-color="#5D5C5C" stop-opacity="0.15"/>
<stop offset="1" stop-color="#5D5C5C"/>
</linearGradient>
</defs>
</svg>
