<svg width="174" height="139" viewBox="0 0 174 139" fill="none" xmlns="http://www.w3.org/2000/svg">
<path d="M76.2441 86.6986H97.3617V128.307C97.3617 133.83 92.8845 138.307 87.3617 138.307H86.2441C80.7213 138.307 76.2441 133.83 76.2441 128.307V86.6986Z" fill="url(#paint0_linear_33_736)"/>
<path d="M115.892 67.4307C111.301 66.2227 108.085 64.3428 105.881 62.2838L100.856 44.5431C100.014 39.0449 96.2844 32.9847 90.7221 32.9847H82.8837C77.3213 32.9847 73.5918 39.0448 72.7494 44.543L67.725 62.2839C65.5205 64.3428 62.3043 66.2228 57.7141 67.4307C46.5495 70.3687 36.3115 74.0609 30.1696 78.0228C24.0277 81.9848 25.7626 52.6088 30.1696 47.9079C34.5767 43.2071 41.7994 41.2973 44.8598 40.9301C47.9203 38.849 52.866 32.6301 48.1651 24.4036C43.4643 16.1771 34.2094 6.04085 30.1696 2.00105C29.0679 0.776862 25.1015 -0.129035 18.0502 6.04085C16.381 7.50141 14.6986 8.65903 13.0904 9.76563C6.20638 14.5024 0.680658 18.3045 3.36 40.9301C3.36 45.191 2.53339 47.1939 1.70692 49.1965C0.880732 51.1985 0.0546875 53.2 0.0546875 57.4566V78.0228C0.0546875 89.775 1.52372 95.6511 14.7449 96.0183C22.4256 96.2317 32.1883 95.4149 39.9579 94.7649C45.5626 94.296 50.1301 93.9138 52.1309 94.0677C52.8267 94.1213 53.7375 94.1429 54.8068 94.1682C57.7695 94.2385 61.9491 94.3376 66.1456 95.2246C68.1885 97.9125 71.4201 99.6776 75.1174 99.6776H98.4884C102.186 99.6776 105.417 97.9125 107.46 95.2246C111.657 94.3376 115.836 94.2385 118.799 94.1682C119.868 94.1429 120.779 94.1212 121.475 94.0677C123.476 93.9138 128.043 94.2959 133.648 94.7649C141.418 95.4149 151.18 96.2317 158.861 96.0183C172.082 95.6511 173.551 89.775 173.551 78.0228V57.4565C173.551 53.2 172.725 51.1984 171.899 49.1965C171.072 47.1939 170.246 45.191 170.246 40.9301C172.925 18.3045 167.399 14.5024 160.515 9.76562C158.907 8.65902 157.225 7.5014 155.556 6.04084C148.504 -0.129044 144.538 0.776853 143.436 2.00104C139.396 6.04084 130.142 16.1771 125.441 24.4036C120.74 32.6301 125.686 38.849 128.746 40.9301C131.806 41.2973 139.029 43.2071 143.436 47.9079C147.843 52.6088 149.578 81.9848 143.436 78.0228C137.294 74.0609 127.056 70.3687 115.892 67.4307Z" fill="url(#paint1_radial_33_736)"/>
<path d="M28.3267 15.7699C32.1946 12.2645 34.3023 9.71542 35.227 7.46C36.1517 5.20458 29.2326 -0.0586134 26.1624 0.428219C23.0923 0.915051 14.5258 5.92457 12.6132 7.45989C10.7006 8.9952 7.62722 12.2948 4.15213 18.4895C1.37206 23.4453 3.90032 29.0155 5.51195 31.1811C6.21704 31.8359 8.41288 33.1453 11.5556 33.1453C14.6983 33.1453 20.7577 28.3095 22.8874 25.1375C25.0171 21.9655 24.4587 19.2752 28.3267 15.7699Z" fill="#5B5D71"/>
<path d="M74.9477 42.3125C75.8904 38.2293 79.5265 35.337 83.7171 35.337H89.8885C94.0791 35.337 97.7152 38.2293 98.6579 42.3125L104.047 65.6584L104.85 90.7884C104.958 94.1754 102.242 96.9799 98.8529 96.9799H74.7527C71.364 96.9799 68.6476 94.1754 68.7558 90.7884L69.5581 65.6584L74.9477 42.3125Z" fill="#5B5D71" fill-opacity="0.9"/>
<path d="M145.279 15.7699C141.411 12.2645 139.304 9.71542 138.379 7.46C137.454 5.20458 144.373 -0.0586134 147.444 0.428219C150.514 0.915051 159.08 5.92457 160.993 7.45989C162.905 8.9952 165.979 12.2948 169.454 18.4895C172.234 23.4453 169.706 29.0155 168.094 31.1811C167.389 31.8359 165.193 33.1453 162.05 33.1453C158.908 33.1453 152.848 28.3095 150.719 25.1375C148.589 21.9655 149.147 19.2752 145.279 15.7699Z" fill="#5B5D71"/>
<defs>
<linearGradient id="paint0_linear_33_736" x1="86.8029" y1="86.6986" x2="86.8029" y2="138.307" gradientUnits="userSpaceOnUse">
<stop stop-color="#303240"/>
<stop offset="1" stop-color="#19191E"/>
</linearGradient>
<radialGradient id="paint1_radial_33_736" cx="0" cy="0" r="1" gradientUnits="userSpaceOnUse" gradientTransform="translate(86.8029 104.52) rotate(-90) scale(90.7275 214.234)">
<stop offset="0.135217" stop-color="#777A93"/>
<stop offset="0.299938" stop-color="#9A9DB9"/>
<stop offset="0.482307" stop-color="#777A93"/>
<stop offset="0.764685" stop-color="#9A9DB9"/>
</radialGradient>
</defs>
</svg>
