<svg width="65" height="31" viewBox="0 0 65 31" fill="none" xmlns="http://www.w3.org/2000/svg">
<path fill-rule="evenodd" clip-rule="evenodd" d="M6.81848 23.9957C6.81848 24.2718 6.59462 24.4957 6.31848 24.4957L5.96948 24.4957C5.80903 24.4957 5.67896 24.3656 5.67896 24.2051C5.67896 24.0447 5.54888 23.9146 5.38843 23.9146H3.08789C2.81175 23.9146 2.58789 23.6908 2.58789 23.4146V6.96979C2.58789 6.69365 2.81175 6.46979 3.08789 6.46979H5.38843C5.54888 6.46979 5.67896 6.33971 5.67896 6.17926C5.67896 6.01881 5.80903 5.88873 5.96948 5.88873H6.31848C6.59462 5.88873 6.81848 6.11259 6.81848 6.38873V6.46979V23.9146V23.9957Z" fill="url(#paint0_linear_33_636)"/>
<g filter="url(#filter0_d_33_636)">
<path fill-rule="evenodd" clip-rule="evenodd" d="M5.83546 24.4639C6.02484 24.3927 6.15959 24.2099 6.15959 23.9957V23.9146V6.46979V6.38873C6.15959 6.17448 6.02483 5.99171 5.83545 5.92054C6.46837 5.50056 7.22773 5.25592 8.04423 5.25592H56.0837C58.2928 5.25592 60.0837 7.04678 60.0837 9.25592V21.1285C60.0837 23.3376 58.2928 25.1285 56.0837 25.1285L8.04423 25.1285C7.22774 25.1285 6.46838 24.8838 5.83546 24.4639Z" fill="url(#paint1_radial_33_636)"/>
</g>
<defs>
<filter id="filter0_d_33_636" x="0.435449" y="0.25592" width="64.2483" height="29.8726" filterUnits="userSpaceOnUse" color-interpolation-filters="sRGB">
<feFlood flood-opacity="0" result="BackgroundImageFix"/>
<feColorMatrix in="SourceAlpha" type="matrix" values="0 0 0 0 0 0 0 0 0 0 0 0 0 0 0 0 0 0 127 0" result="hardAlpha"/>
<feOffset dx="-0.4"/>
<feGaussianBlur stdDeviation="2.5"/>
<feComposite in2="hardAlpha" operator="out"/>
<feColorMatrix type="matrix" values="0 0 0 0 0 0 0 0 0 0 0 0 0 0 0 0 0 0 0.25 0"/>
<feBlend mode="color-burn" in2="BackgroundImageFix" result="effect1_dropShadow_33_636"/>
<feBlend mode="normal" in="SourceGraphic" in2="effect1_dropShadow_33_636" result="shape"/>
</filter>
<linearGradient id="paint0_linear_33_636" x1="2.58789" y1="15.1922" x2="6.81848" y2="15.1922" gradientUnits="userSpaceOnUse">
<stop stop-color="#6E6B6C"/>
<stop offset="1" stop-color="#383737"/>
</linearGradient>
<radialGradient id="paint1_radial_33_636" cx="0" cy="0" r="1" gradientUnits="userSpaceOnUse" gradientTransform="translate(8.78622 15.1922) rotate(90) scale(9.93627 78.6815)">
<stop offset="0.0114799" stop-color="#DFDFDF"/>
<stop offset="0.522986" stop-color="#9F9F9F"/>
<stop offset="1" stop-color="#DFDFDF"/>
</radialGradient>
</defs>
</svg>
